v 1.097813578829041243e-08 -2.043419844485498335e-04 -1.651398287114271696e-03
v 1.097813578829041243e-08 -6.624098482332964073e-04 2.657713104552830718e-03
v 1.097813578829041243e-08 3.510807967487881813e-04 2.173340262523969224e-02
v 7.936308484229766952e-03 7.620731171429314700e-04 1.801382528296788937e-02
v 1.187481756106349359e-02 7.003541256509881324e-04 6.543202182791436200e-03
v 1.447742740407916354e-02 -5.134970874549661408e-04 -4.707278770812546240e-03
v -7.940788988318719238e-03 7.595869398884635276e-04 1.800951076350292002e-02
v -1.448695277079609794e-02 -5.184082278773028980e-04 -4.715789671473895328e-03
v -1.188053463801411538e-02 6.965893938414911661e-04 6.536514457828605969e-03
v 4.127822097096169388e-03 -2.043421808209202380e-04 -7.388189199368858096e-04
v 4.879293318543160424e-03 4.517765285656015310e-04 -1.287951877661863351e-02
v 5.350301887545311566e-03 1.927766498478518040e-03 -2.422886992194572472e-02
v -4.132788677063262313e-03 -2.043421799645802825e-04 -7.427984624623698573e-04
v -4.883076001253402847e-03 4.492460319981137276e-04 -1.288315194048801626e-02
v -5.355847899165428264e-03 1.926789797211454769e-03 -2.423419988104024911e-02
l 2 1
l 3 2
l 4 2
l 5 4
l 6 5
l 7 2
l 9 7
l 8 9
l 10 1
l 11 10
l 12 11
l 13 1
l 14 13
l 15 14
