v 3.201956271584700318e-08 -5.108549589110627891e-04 -4.136330115151192963e-03
v 3.201956271584700318e-08 -8.925781787316850423e-04 1.158764391558380832e-03
v 3.201956271584700318e-08 -4.800264124661451567e-05 2.459923032799563036e-02
v 9.566104906372422181e-03 2.944909590818383695e-04 2.002856325486502415e-02
v 1.431341495434164564e-02 2.430584661718853713e-04 5.933306055495651647e-03
v 1.745048931869089270e-02 -7.684842114164098202e-04 -7.891437489187209248e-03
v -9.571467940002985342e-03 2.924191447031148673e-04 2.002326151484450784e-02
v -1.746193321352482522e-02 -7.725768284350237845e-04 -7.901895799321916741e-03
v -1.432026849990368500e-02 2.399211896639713050e-04 5.925088088380308510e-03
v 4.975518636166746840e-03 -5.108551225547048290e-04 -3.014940214806098931e-03
v 5.881309840589458646e-03 3.591046860072994243e-05 -1.793359681835570568e-02
v 6.449043383583123387e-03 1.265902110194826961e-03 -3.187983339524069759e-02
v -4.981467564828996782e-03 -5.108551218410881632e-04 -3.019830330621314438e-03
v -5.885831750236755755e-03 3.380172146115684520e-05 -1.793806129938163921e-02
v -6.455690734327143403e-03 1.265088192472273946e-03 -3.188638292124668094e-02
l 2 1
l 3 2
l 4 2
l 5 4
l 6 5
l 7 2
l 9 7
l 8 9
l 10 1
l 11 10
l 12 11
l 13 1
l 14 13
l 15 14
