v 6.403912543169399312e-08 -9.195389248610799909e-04 -8.277883161879395074e-03
v 6.403912543169399312e-08 -1.199469286062869672e-03 -1.339483463432367821e-03
v 6.403912543169399312e-08 -5.801138919071511559e-04 2.937560983258885594e-02
v 1.204622989658950608e-02 -3.289519183329525035e-04 2.338645987469357632e-02
v 1.802432403106926651e-02 -3.666690798002512821e-04 4.916812510002676814e-03
v 2.197471397136091173e-02 -1.108467043365001176e-03 -1.319836868647831021e-02
v -1.205293590995730121e-02 -3.304712488773496517e-04 2.337951276708048753e-02
v -2.198907736550332129e-02 -1.111468295845318083e-03 -1.321207267906861910e-02
v -1.803290698538781087e-02 -3.689697492393882207e-04 4.906044139299813901e-03
v 6.265491630404580736e-03 -9.195390448664174723e-04 -6.808475706254788623e-03
v 7.406117591529477566e-03 -5.185776113524318866e-04 -2.635706022125082829e-02
v 8.121041312336313781e-03 3.834162591499061003e-04 -4.463143918406563271e-02
v -6.272935437515983828e-03 -9.195390443430986709e-04 -6.814883444219554248e-03
v -7.411764411733160959e-03 -5.201240259214521145e-04 -2.636291023087101656e-02
v -8.129364613921058122e-03 3.828193861533670493e-04 -4.464002132159071434e-02
l 2 1
l 3 2
l 4 2
l 5 4
l 6 5
l 7 2
l 9 7
l 8 9
l 10 1
l 11 10
l 12 11
l 13 1
l 14 13
l 15 14
